<svg width="184" height="54" fill="none" xmlns="http://www.w3.org/2000/svg"><g clip-path="url(#a)"><path d="M176.6 53.3H6.9a6.2 6.2 0 0 1-6.2-6.2V6.9C.7 3.5 3.5.7 6.9.7h169.7c3.4 0 6.2 2.8 6.2 6.2v40.2c0 3.4-2.8 6.2-6.2 6.2Z" fill="#000"/><path d="M176.6 54H6.9A7 7 0 0 1 0 47.1V6.9A7 7 0 0 1 6.9 0h169.7c3.8 0 6.9 3 6.9 6.9v40.2a7 7 0 0 1-7 6.9ZM6.9 1.4c-3 0-5.5 2.5-5.5 5.5v40.2c0 3 2.5 5.5 5.5 5.5h169.7c3 0 5.5-2.5 5.5-5.5V6.9c0-3-2.5-5.5-5.5-5.5H6.9Z" fill="#A7A9AC"/><path d="m61 15.4-.7 2.5h-1.7L61.5 9h2l3 8.9h-1.8l-.8-2.5h-2.8Zm2.6-1.3L63 12l-.4-1.6-.5 1.6-.7 2.2h2.3ZM68.9 11.5l1 3.2.4 1.6.5-1.6 1-3.2h1.7l-2.4 6.4h-1.6l-2.4-6.4H69ZM80 16.3V18h-1.4v-.7h-.1c-.4.5-1 .8-2 .8-1.2 0-2-1-2-1.9 0-1.6 1.5-2.4 3.9-2.4v-.1c0-.4-.2-1.1-1.3-1.1-.7 0-1.3.2-1.8.4l-.3-1c.5-.3 1.3-.6 2.3-.6 2.1 0 2.7 1.3 2.7 2.7v2.3Zm-1.6-1.6c-1.1 0-2.2.3-2.2 1.2 0 .7.4 1 .9 1 .7 0 1.1-.5 1.3-1v-1.2ZM83 10.5a.9.9 0 0 1-.8-.8c0-.5.4-1 .9-1 .6 0 .9.5 1 1 0 .4-.4.8-1 .8Zm-.7 7.4v-6.4h1.6v6.4h-1.6ZM86.2 8.5h1.6V18h-1.6V8.5ZM95.2 16.3V18h-1.4l-.1-.7c-.4.5-1.1.8-2 .8-1.2 0-2-1-2-1.9 0-1.6 1.5-2.4 3.8-2.4v-.1c0-.4-.1-1.1-1.3-1.1-.6 0-1.3.2-1.7.4l-.3-1c.5-.3 1.3-.6 2.3-.6 2 0 2.7 1.3 2.7 2.7v2.3Zm-1.6-1.6c-1.2 0-2.3.3-2.3 1.2 0 .7.4 1 1 1s1-.5 1.2-1v-1.2ZM97.4 8.5h1.7v3.8c.4-.6 1-1 2-1 1.6 0 2.7 1.3 2.7 3.3 0 2.3-1.4 3.4-2.9 3.4-.8 0-1.6-.3-2-1l-.1.9h-1.4V8.5Zm1.7 6.7v.4c.2.7.7 1.1 1.4 1.1 1 0 1.7-.8 1.7-2s-.6-2.1-1.6-2.1c-.7 0-1.3.5-1.5 1.2v1.4ZM105.7 8.5h1.6V18h-1.6V8.5ZM110.8 15.1c0 1.2 1 1.7 2 1.7.7 0 1.3-.1 1.8-.3l.2 1.1c-.5.2-1.3.4-2.2.4-2.1 0-3.3-1.3-3.3-3.2 0-1.8 1-3.5 3.1-3.5 2 0 2.8 1.7 2.8 3.1v.7h-4.4Zm2.8-1.1c0-.6-.2-1.6-1.3-1.6-1 0-1.4 1-1.5 1.6h2.8ZM123.2 18c-1.8 0-3.3-1.2-3.3-3.3 0-2.1 1.4-3.4 3.4-3.4 1.9 0 3.1 1.4 3.1 3.3 0 2.4-1.6 3.4-3.2 3.4Zm0-1.2c1 0 1.6-.8 1.6-2.2 0-1-.5-2.1-1.6-2.1s-1.6 1.1-1.6 2.2c0 1.2.6 2.1 1.6 2.1ZM128.4 13.4l-.1-2h1.4v1h.1c.3-.5 1-1 2-1 1.2 0 2.4.6 2.4 2.7v3.8h-1.7v-3.7c0-.9-.3-1.6-1.2-1.6-.6 0-1 .5-1.2 1l-.1.5v3.8h-1.6v-4.5ZM141.6 9.8v1.7h1.6v1.2h-1.6v2.8c0 .8.2 1.2.8 1.2l.7-.1v1.2l-1.2.2c-.6 0-1-.2-1.4-.5-.3-.4-.5-1-.5-1.8v-3h-.9v-1.3h1v-1.1l1.5-.5ZM145 8.5h1.6v3.8l.8-.7c.3-.2.7-.3 1.1-.3 1.1 0 2.3.7 2.3 2.8v3.8H149v-3.6c0-1-.3-1.7-1.2-1.7-.6 0-1 .5-1.3 1v4.3h-1.7V8.5ZM154.2 15.1c0 1.2 1 1.7 2 1.7.7 0 1.2-.1 1.8-.3l.2 1.1c-.6.2-1.3.4-2.2.4-2.1 0-3.3-1.3-3.3-3.2 0-1.8 1-3.5 3-3.5 2.2 0 2.9 1.7 2.9 3.1l-.1.7h-4.3ZM157 14c0-.6-.2-1.6-1.3-1.6-1 0-1.4 1-1.5 1.6h2.8ZM41 26.5c0-4.4 3.5-6.6 3.7-6.7-2-3-5.2-3.4-6.4-3.4-2.6-.3-5.2 1.6-6.6 1.6-1.4 0-3.5-1.6-5.8-1.5-2.9 0-5.6 1.7-7.1 4.3-3 5.4-.8 13.2 2.2 17.5 1.5 2.2 3.2 4.5 5.4 4.4 2.2 0 3-1.4 5.7-1.4s3.5 1.4 5.8 1.4c2.4 0 3.8-2.1 5.3-4.3 1.7-2.4 2.4-4.8 2.4-5 0 0-4.6-1.7-4.7-7ZM36.6 13.6c1.2-1.5 2-3.6 1.8-5.6a7.9 7.9 0 0 0-5.2 2.6 7.4 7.4 0 0 0-1.8 5.4c2 .2 4-1 5.2-2.4ZM73 42.4h-3.2L68.2 37h-5.9l-1.6 5.3h-3l5.8-18h3.6l5.8 18Zm-5.3-7.5L66 30l-.9-3.4-.9 3.4-1.5 4.8h4.9ZM87.9 35.7c0 2.2-.6 4-1.8 5.3a5.2 5.2 0 0 1-4 1.7c-1.7 0-3-.6-3.7-1.9v6.9h-3V29.4h2.5l.2 2c1-1.5 2.4-2.3 4.4-2.3 1.5 0 2.8.6 3.8 1.8 1 1.2 1.6 2.8 1.6 4.8Zm-3 .1c0-1.2-.2-2.3-.8-3.1a3 3 0 0 0-2.5-1.3 3 3 0 0 0-2 .7c-.6.5-1 1.1-1.1 1.9l-.2.9V37c0 1 .3 1.8 1 2.4.5.7 1.3 1 2.2 1 1 0 2-.4 2.5-1.3.6-.8 1-1.9 1-3.3ZM102.9 35.7c0 2.2-.6 4-1.8 5.3a5.2 5.2 0 0 1-4 1.7c-1.7 0-3-.6-3.7-1.9v6.9h-3V29.4h2.5l.2 2c1-1.5 2.4-2.3 4.4-2.3 1.5 0 2.8.6 3.8 1.8 1 1.2 1.6 2.8 1.6 4.8Zm-3 .1c0-1.2-.2-2.3-.8-3.1a3 3 0 0 0-2.5-1.3 3 3 0 0 0-2 .7c-.6.5-1 1.1-1.1 1.9l-.2.9V37c0 1 .3 1.8 1 2.4.5.7 1.2 1 2.2 1 1 0 2-.4 2.5-1.3.6-.8 1-1.9 1-3.3ZM119.7 37.3c0 1.6-.6 2.8-1.7 3.8a7.1 7.1 0 0 1-4.9 1.6c-2 0-3.5-.4-4.7-1.2l.7-2.4a8 8 0 0 0 4.2 1.2c1 0 2-.3 2.5-.8.6-.4 1-1.1 1-2 0-.7-.3-1.3-.8-1.8s-1.3-1-2.5-1.4c-3.2-1.2-4.7-2.9-4.7-5.2 0-1.4.5-2.7 1.6-3.6 1.1-1 2.6-1.4 4.4-1.4 1.7 0 3 .2 4.1.8l-.7 2.4c-1-.6-2.2-.9-3.4-.9-1 0-1.9.3-2.4.8-.5.4-.8 1-.8 1.6 0 .8.3 1.3.9 1.8.5.4 1.3.9 2.6 1.4 1.6.6 2.7 1.4 3.4 2.2.8.8 1.2 1.9 1.2 3.1ZM129.2 31.5H126V38c0 1.6.6 2.4 1.7 2.4.5 0 1 0 1.3-.2v2.2c-.5.3-1.2.4-2.2.4-1.1 0-2-.4-2.6-1-.7-.8-1-2-1-3.6v-6.6h-2v-2.1h2V27l2.8-.9v3.3h3.2v2.1ZM143.6 35.8c0 2-.6 3.6-1.7 4.9a6.1 6.1 0 0 1-4.8 2c-1.9 0-3.4-.6-4.5-2a6.9 6.9 0 0 1-1.7-4.7 7 7 0 0 1 1.7-5 6 6 0 0 1 4.7-2c2 0 3.5.7 4.7 2a6.8 6.8 0 0 1 1.6 4.8Zm-3 0a6 6 0 0 0-.8-3c-.6-1-1.4-1.6-2.6-1.6a3 3 0 0 0-2.6 1.6 6 6 0 0 0-.8 3.1c0 1.2.3 2.2.8 3.1a3 3 0 0 0 2.6 1.6c1.1 0 2-.6 2.6-1.6.5-.9.8-2 .8-3.1ZM153 32l-.9-.2c-1 0-1.8.4-2.3 1.2-.5.7-.8 1.5-.8 2.6v6.8h-2.9v-13h2.5v2.5h.2c.3-.9.8-1.6 1.4-2.1.7-.5 1.4-.7 2.1-.7h.7V32ZM166 35.3l-.1 1.3h-8.7c0 1.3.4 2.2 1.3 3 .7.5 1.6.8 2.8.8 1.3 0 2.4-.2 3.5-.6l.5 2c-1.3.6-2.7.8-4.4.8-2 0-3.6-.6-4.8-1.7a6.6 6.6 0 0 1-1.7-4.8c0-2 .5-3.6 1.6-5 1.1-1.3 2.7-2 4.6-2 1.8 0 3.3.7 4.2 2a7 7 0 0 1 1.2 4.2Zm-2.8-.8a4 4 0 0 0-.5-2.2 2.5 2.5 0 0 0-2.4-1.2c-.9 0-1.7.4-2.3 1.2-.4.6-.7 1.3-.8 2.2h6Z" fill="#fff"/></g><defs><clipPath id="a"><path fill="#fff" d="M0 0h183.5v54H0z"/></clipPath></defs></svg>