<svg width="184" height="54" fill="none" xmlns="http://www.w3.org/2000/svg"><g clip-path="url(#a)"><path d="M176.81 53.33H7.15A6.22 6.22 0 0 1 .93 47.1V6.9C.93 3.47 3.72.68 7.15.68H176.8c3.44 0 6.22 2.8 6.22 6.22v40.2c0 3.43-2.79 6.23-6.22 6.23Z" fill="#000"/><path d="M176.81 54H7.15a6.9 6.9 0 0 1-6.9-6.9V6.9A6.9 6.9 0 0 1 7.14 0H176.8a6.9 6.9 0 0 1 6.9 6.9v40.2c0 3.8-3.1 6.9-6.9 6.9ZM7.15 1.37A5.55 5.55 0 0 0 1.6 6.9v40.2a5.55 5.55 0 0 0 5.54 5.53H176.8a5.55 5.55 0 0 0 5.54-5.54V6.9a5.55 5.55 0 0 0-5.54-5.54H7.15Z" fill="#A7A9AC"/><path d="M92.8 29.53A5.7 5.7 0 0 0 87 35.3a5.7 5.7 0 0 0 5.8 5.77 5.7 5.7 0 0 0 5.79-5.77 5.7 5.7 0 0 0-5.8-5.77Zm0 9.27c-1.75 0-3.26-1.44-3.26-3.5 0-2.07 1.51-3.5 3.26-3.5 1.74 0 3.25 1.42 3.25 3.5 0 2.06-1.5 3.5-3.25 3.5Zm-12.63-9.27a5.7 5.7 0 0 0-5.8 5.77 5.7 5.7 0 0 0 5.8 5.77 5.7 5.7 0 0 0 5.8-5.77 5.7 5.7 0 0 0-5.8-5.77Zm0 9.27c-1.75 0-3.26-1.44-3.26-3.5 0-2.07 1.51-3.5 3.26-3.5 1.74 0 3.25 1.42 3.25 3.5 0 2.06-1.5 3.5-3.25 3.5Zm-15.03-7.5v2.45H71a5.11 5.11 0 0 1-1.34 3.08 5.99 5.99 0 0 1-4.52 1.78c-3.6 0-6.42-2.9-6.42-6.5a6.43 6.43 0 0 1 10.83-4.77l1.73-1.73a8.53 8.53 0 0 0-6.14-2.47 9.08 9.08 0 0 0-9.08 8.96 9.08 9.08 0 0 0 9.08 8.95 8.2 8.2 0 0 0 6.25-2.51c1.62-1.62 2.12-3.89 2.12-5.73 0-.56-.04-1.1-.14-1.52h-8.23v.01Zm61.44 1.9c-.48-1.29-1.95-3.67-4.94-3.67-2.97 0-5.44 2.34-5.44 5.77a5.65 5.65 0 0 0 5.73 5.77 5.73 5.73 0 0 0 4.8-2.56l-1.96-1.3a3.3 3.3 0 0 1-2.84 1.59c-1.3 0-2.21-.6-2.8-1.75l7.71-3.18-.26-.67Zm-7.86 1.92a3.16 3.16 0 0 1 3.01-3.36c1 0 1.86.5 2.14 1.22l-5.16 2.14Zm-6.27 5.6H115V23.77h-2.54v16.95Zm-4.16-9.9h-.08a4 4 0 0 0-3.03-1.29 5.74 5.74 0 0 0-5.54 5.8 5.71 5.71 0 0 0 5.53 5.74c1.38 0 2.47-.62 3.04-1.31h.08v.83c0 2.2-1.18 3.39-3.07 3.39a3.2 3.2 0 0 1-2.91-2.06l-2.21.92a5.5 5.5 0 0 0 5.1 3.4c2.98 0 5.49-1.74 5.49-6V29.87h-2.4v.94Zm-2.9 7.98c-1.74 0-3.2-1.47-3.2-3.47 0-2.04 1.46-3.52 3.2-3.52 1.73 0 3.08 1.48 3.08 3.52 0 2-1.36 3.47-3.08 3.47Zm33.06-15.03h-6.06v16.95h2.53V34.3h3.53c2.8 0 5.57-2.03 5.57-5.26s-2.76-5.27-5.57-5.27Zm.07 8.17h-3.6v-5.81h3.6a2.94 2.94 0 0 1 2.97 2.9c0 1.31-1.08 2.9-2.97 2.9Zm15.63-2.44c-1.83 0-3.73.8-4.51 2.6l2.24.93c.48-.93 1.38-1.24 2.31-1.24 1.3 0 2.64.79 2.67 2.19v.17a5.6 5.6 0 0 0-2.64-.65c-2.42 0-4.88 1.33-4.88 3.82 0 2.26 1.98 3.72 4.2 3.72 1.7 0 2.64-.77 3.23-1.66h.09v1.3h2.44v-6.5c0-3-2.24-4.68-5.15-4.68Zm-.3 9.3c-.83 0-1.98-.42-1.98-1.45 0-1.3 1.44-1.81 2.68-1.81 1.1 0 1.63.23 2.3.56a3.06 3.06 0 0 1-3 2.7Zm14.35-8.93-2.9 7.35h-.09l-3-7.35h-2.73l4.5 10.27-2.56 5.72h2.64L171 29.87h-2.81Zm-22.8 10.85h2.54V23.77h-2.53v16.95Z" fill="#fff"/><path d="M14.55 10.27c-.4.41-.62 1.06-.62 1.9v29.97c0 .84.23 1.48.62 1.9l.1.1 16.79-16.78v-.4L14.65 10.18l-.1.09Z" fill="#5BC9F4"/><path d="m37.04 32.96-5.6-5.6v-.4l5.6-5.6.12.08 6.63 3.77c1.9 1.08 1.9 2.83 0 3.91l-6.63 3.76-.12.08Z" fill="url(#b)"/><path d="m37.16 32.88-5.72-5.72-16.89 16.88c.62.66 1.65.74 2.82.09l19.8-11.25Z" fill="url(#c)"/><path d="M37.16 21.43 17.36 10.2c-1.16-.65-2.19-.58-2.8.09l16.88 16.88 5.72-5.73Z" fill="url(#d)"/><path d="M62.57 11.23a2.87 2.87 0 0 0-1.92-.74 2.99 2.99 0 0 0-2.95 3.07 2.98 2.98 0 0 0 2.95 3.05c1.43 0 2.48-.84 2.55-2.15h-2.27v-.94h3.5c0 2.8-1.5 4.13-3.78 4.13a4.03 4.03 0 0 1-4.03-4.1 4.03 4.03 0 0 1 6.73-3.04l-.78.72ZM70.62 9.55v1h-3.65v2.55h3.18v1.01h-3.18v2.41h3.76v1h-4.84V9.56h4.73ZM77.6 9.55v1.02h-2.42v6.96h-1.09v-6.96h-2.42V9.55h5.93ZM82.77 9.55v7.98h-1.08V9.55h1.08ZM90.1 9.55v1.02H87.7v6.96H86.6v-6.96h-2.42V9.55h5.93ZM97.7 9.46a4.04 4.04 0 0 1 4.06 4.1 4.04 4.04 0 1 1-8.09 0c0-2.27 1.77-4.1 4.03-4.1Zm0 7.14a2.98 2.98 0 0 0 2.97-3.04c0-1.7-1.28-3.06-2.97-3.06a2.98 2.98 0 0 0-2.95 3.06c0 1.7 1.29 3.04 2.95 3.04ZM108.13 17.53l-3.64-6.01v6h-1.08V9.56h1.06l3.6 5.96V9.55h1.08v7.98h-1.03Z" fill="#fff"/></g><defs><linearGradient id="b" x1="42.56" y1="27.16" x2="9.77" y2="27.16" gradientUnits="userSpaceOnUse"><stop stop-color="#FEE000"/><stop offset=".19" stop-color="#FCCF0B"/><stop offset=".55" stop-color="#FAB318"/><stop offset=".83" stop-color="#F9A21B"/><stop offset="1" stop-color="#F99B1C"/></linearGradient><linearGradient id="c" x1="34.05" y1="30.27" x2="3.22" y2="61.1" gradientUnits="userSpaceOnUse"><stop stop-color="#EF4547"/><stop offset="1" stop-color="#C6186D"/></linearGradient><linearGradient id="d" x1="3.08" y1="-6.92" x2="28.25" y2="18.25" gradientUnits="userSpaceOnUse"><stop stop-color="#279E6F"/><stop offset=".32" stop-color="#4DAB6D"/><stop offset=".74" stop-color="#6ABA6A"/><stop offset="1" stop-color="#74C169"/></linearGradient><clipPath id="a"><path fill="#fff" transform="translate(.24)" d="M0 0h183.47v54H0z"/></clipPath></defs></svg>